<?xml version="1.0" encoding="UTF-8" standalone="no"?>
<svg
   xmlns:dc="http://purl.org/dc/elements/1.1/"
   xmlns:cc="http://creativecommons.org/ns#"
   xmlns:rdf="http://www.w3.org/1999/02/22-rdf-syntax-ns#"
   xmlns:svg="http://www.w3.org/2000/svg"
   xmlns="http://www.w3.org/2000/svg"
   height="186.87"
   width="621.20001"
   id="svg933"
   version="1.1"
   viewBox="0 0 621.2 186.87">
  <metadata
     id="metadata937">
    <rdf:RDF>
      <cc:Work
         rdf:about="">
        <dc:format>image/svg+xml</dc:format>
        <dc:type
           rdf:resource="http://purl.org/dc/dcmitype/StillImage" />
        <dc:title></dc:title>
      </cc:Work>
    </rdf:RDF>
  </metadata>
  <defs
     id="defs905">
    <style
       id="style903">.cls-1{fill:#1a3c6c;}.cls-2{fill:#4dbcc5;}.cls-3{fill:#d77900;}</style>
  </defs>
  <g
     transform="translate(-109.9,-159.58)"
     data-name="Layer 1"
     id="Layer_1">
    <path
       style="fill:#1a3c6c"
       d="M 211.93,276.92 V 159.6 h 15.58 v 117.32 z"
       class="cls-1"
       data-name="Path 100-2"
       id="Path_100-2" />
    <path
       style="fill:#1a3c6c"
       d="m 315.29,250.62 c 0,8.78 0.12,21 0.18,26.29 h -15.16 c -0.42,-4.49 -0.62,-9 -0.59,-13.53 -4.41,10 -13.13,15.67 -27.33,15.67 -15.21,0 -29.82,-7.56 -29.82,-33 V 186.7 H 258 v 56 c 0,11.86 3.72,22.79 18.69,22.79 16.59,0 23,-9.2 23,-31.74 v -47.07 h 15.58 z"
       class="cls-1"
       data-name="Path 101-2"
       id="Path_101-2" />
    <path
       style="fill:#1a3c6c"
       d="M 342.36,234.63 C 342.47,253 351.71,266 367,266 c 14.27,0 18.9,-7.36 21.78,-14 h 15.72 c -3.54,11.55 -13.22,27 -37.95,27 -28.38,0 -39.94,-23.06 -39.94,-46.29 0,-26.86 13.51,-48.22 40.94,-48.22 29.11,0 38.65,23.35 38.65,42.6 a 71.71,71.71 0 0 1 -0.24,7.48 z m 48,-11 c -0.18,-14.84 -7.65,-26.78 -23.07,-26.78 -15.87,0 -22.85,11 -24.43,26.78 z"
       class="cls-1"
       data-name="Path 102-2"
       id="Path_102-2" />
    <path
       style="fill:#1a3c6c"
       d="m 430.13,173.66 h -40 V 159.6 h 96.55 v 14.06 h -40 v 103.25 h -16.55 z"
       class="cls-1"
       data-name="Path 103-2"
       id="Path_103-2" />
    <path
       style="fill:#1a3c6c"
       d="m 485.81,234.63 c 0.11,18.36 9.35,31.4 24.67,31.4 14.27,0 18.89,-7.36 21.78,-14 H 548 c -3.55,11.55 -13.23,27 -38,27 -28.37,0 -39.95,-23.06 -39.95,-46.29 0,-26.86 13.52,-48.22 40.95,-48.22 29.11,0 38.65,23.35 38.65,42.6 a 74.71,74.71 0 0 1 -0.24,7.48 z m 48,-11 c -0.18,-14.84 -7.64,-26.78 -23.07,-26.78 -15.87,0 -22.85,11 -24.43,26.78 z"
       class="cls-1"
       data-name="Path 104-2"
       id="Path_104-2" />
    <path
       style="fill:#1a3c6c"
       d="m 640.37,249.3 c -3.82,15.54 -14.33,29.75 -37.27,29.75 -24.83,0 -40.23,-17.87 -40.23,-46.77 0,-25.52 14.43,-47.74 41.36,-47.74 26,0 35,18.54 36.16,30.18 H 625 c -2.22,-9.19 -8,-17.15 -21,-17.15 -16,0 -25,13.69 -25,34.16 0,20.47 8.77,34.36 24.43,34.36 11.29,0 17.86,-6 21.54,-16.78 z"
       class="cls-1"
       data-name="Path 105-2"
       id="Path_105-2" />
    <path
       style="fill:#1a3c6c"
       d="M 668.72,159.6 V 200 a 30.23,30.23 0 0 1 28.16,-15.45 c 14.46,0 30.39,7.92 30.39,34.77 v 57.6 h -15.49 v -55 c 0,-15.35 -6.5,-23.86 -19.64,-23.86 -16.24,0 -23.41,10.73 -23.41,29.53 v 49.33 H 653.15 V 159.6 Z"
       class="cls-1"
       data-name="Path 106-2"
       id="Path_106-2" />
    <path
       style="fill:#1a3c6c"
       d="m 184.69,214 a 28.17,28.17 0 0 0 11.09,-23.5 c 0,-17.15 -12.18,-30.92 -38.35,-30.92 H 109.9 v 117.34 h 48.67 c 23.48,0 41.29,-12.93 41.29,-36.27 A 29.77,29.77 0 0 0 184.69,214 Z M 126,173.16 h 32.87 a 31.81,31.81 0 0 1 8.58,1.09 15.15,15.15 0 0 1 -0.3,29.2 45.79,45.79 0 0 1 -10.82,1.14 H 126 Z m 30.59,90.19 H 126 v -45.2 h 27.44 c 20.87,0 29.5,9 29.5,22.47 0,15.43 -10.8,22.73 -26.35,22.73 z"
       class="cls-1"
       data-name="Path 107-2"
       id="Path_107-2" />
    <path
       style="fill:#4dbcc5"
       d="m 726.47,316.25 a 34.19,34.19 0 0 0 -6.57,-7.62 0.56,0.56 0 0 0 -0.75,0 33.67,33.67 0 0 0 -6.56,7.62 25.23,25.23 0 0 0 -4.65,13.48 V 330 a 11.13,11.13 0 0 0 0.79,4.11 11.34,11.34 0 0 0 10.78,7.18 11.45,11.45 0 0 0 11.59,-11.29 25.38,25.38 0 0 0 -4.63,-13.75 z"
       class="cls-2"
       data-name="Icon ionic-ios-water 1 2"
       id="Icon_ionic-ios-water_1_2" />
    <path
       style="fill:#d77900"
       id="path916"
       d="m 116.1,328 v 17.94 h -6.2 v -41.71 h 17.89 c 8.68,0 13.66,4.49 13.66,11.27 0,5.34 -2.95,8.67 -7.16,9.86 3,0.84 6.28,3.16 6.28,10.45 v 1.85 c 0,2.95 -0.08,6.48 0.54,8.26 h -6.18 c -0.72,-1.81 -0.68,-5 -0.68,-8.85 v -1 c 0,-5.75 -1.81,-8.06 -9.08,-8.06 z m 0,-5.14 h 10 c 6.18,0 9,-2.27 9,-6.84 0,-4.29 -2.87,-6.64 -8.52,-6.64 H 116.1 Z"
       class="cls-3" />
    <path
       style="fill:#d77900"
       id="path918"
       d="m 214.76,326.6 h -22 v 13.93 H 217 l -0.79,5.27 H 186.6 v -41.69 h 29.25 v 5.28 h -23.08 v 11.94 h 22 z"
       class="cls-3" />
    <path
       style="fill:#d77900"
       id="path920"
       d="m 264,333.94 c 1.22,4.8 4.61,7.59 11.18,7.59 6.81,0 9.44,-2.9 9.44,-6.66 0,-4 -2.11,-6.26 -11,-8.15 -11,-2.35 -14.2,-6 -14.2,-11.8 0,-6.75 5.53,-11.5 14.86,-11.5 11.32,0 15.18,6.24 15.71,11.39 h -6.35 c -0.73,-3.26 -2.75,-6.45 -9.56,-6.45 -5.17,0 -8.21,2.1 -8.21,5.94 0,3.58 2.08,5.24 9.95,6.91 13,2.8 15.3,7.44 15.3,13 0,6.82 -5.19,12.23 -16.35,12.23 -11,0 -16.06,-5.57 -17.1,-12.5 z"
       class="cls-3" />
    <path
       style="fill:#d77900"
       id="path922"
       d="m 363.4,326.6 h -22 v 13.93 h 24.21 l -0.8,5.27 h -29.57 v -41.69 h 29.25 v 5.28 h -23.07 v 11.94 h 22 z"
       class="cls-3" />
    <path
       style="fill:#d77900"
       id="path924"
       d="m 416.71,333.74 -4.55,12.06 h -6.32 l 15.74,-41.69 h 7.74 l 16.42,41.69 H 439 l -4.73,-12.06 z m 15.9,-5.29 C 428.43,317.64 426.23,312 425.3,308.86 h -0.06 c -1,3.35 -3.47,10.32 -6.86,19.59 z"
       class="cls-3" />
    <path
       style="fill:#d77900"
       id="path926"
       d="M 494.2,327.86 V 345.8 H 488 v -41.69 h 17.9 c 8.68,0 13.65,4.49 13.65,11.27 0,5.34 -2.94,8.66 -7.16,9.86 3,0.84 6.29,3.16 6.29,10.45 v 1.85 c 0,2.95 -0.09,6.48 0.54,8.26 H 513 c -0.71,-1.81 -0.68,-5 -0.68,-8.85 v -1 c 0,-5.75 -1.81,-8.06 -9.07,-8.06 z m 0,-5.14 h 10 c 6.18,0 9,-2.27 9,-6.84 0,-4.29 -2.87,-6.64 -8.52,-6.64 H 494.2 Z"
       class="cls-3" />
    <path
       style="fill:#d77900"
       id="path928"
       d="m 599.8,333.69 c -2,7.18 -7.34,12.76 -17.79,12.76 -13.08,0 -19.76,-9.57 -19.76,-21.38 0,-11.5 7,-21.66 20,-21.66 10.74,0 16.24,6 17.55,13 h -6.31 c -1.47,-4.23 -4.45,-7.82 -11.43,-7.82 -9,0 -13.28,7.69 -13.28,16.31 0,8.38 4.07,16.45 13.46,16.45 6.73,0 9.53,-3.53 11.22,-7.63 z"
       class="cls-3" />
    <path
       style="fill:#d77900"
       id="path930"
       d="M 643.73,304.11 H 650 v 17 h 22 v -17 h 6.26 V 345.8 H 672 v -19.38 h -22 v 19.38 h -6.27 z"
       class="cls-3" />
  </g>
</svg>
