<svg version="1.1" id="Layer_1" xmlns="http://www.w3.org/2000/svg" xmlns:xlink="http://www.w3.org/1999/xlink" x="0px" y="0px"
	 viewBox="0 0 547 185.8" style="enable-background:new 0 0 547 185.8;" xml:space="preserve">
<style type="text/css">
	.st0{fill:#FFAE00;}
	.st1{fill:#049892;}
	.st2{fill:#365DAD;}
	.st3{fill:#FC6F01;}
	.st4{enable-background:new    ;}
	.st5{fill:#011D2D;}
</style>
<g id="Layer_2_1_">
	<g id="ART">
		<path class="st0" d="M100.5,125.9c4.1-4.4,7.8-9.8,7.6-17.2c6.2,0.2,11-2.5,15-5.8c1.5-1.3,3-2.6,4.3-4c3.5-3.7,7.7-6.6,12.4-8.7
			c3.9-1.7,8.1-2.2,12.3-1.6c2.7,0.4,5.4,1.3,7.9,2.6c2.4-1.4,4.7-3.1,6.6-5.1c0.3-0.3,0.5-0.5,0.8-0.8c-4.2-2.7-8.9-4.6-13.9-5.4
			c-5.8-0.9-11.7-0.1-17.1,2.2c-5.7,2.5-10.9,6.1-15.3,10.7c-1.3,1.3-2.5,2.5-3.7,3.4c-3.3,2.8-6.3,4.1-10,3.7l-9.2-0.7l1,8.9
			c0.4,4.2-1.2,7.3-4.6,11.1l0.5,0.5C97.1,121.7,98.9,123.7,100.5,125.9z"/>
		<path class="st0" d="M178.3,95.2c-0.4,0.5-0.8,0.9-1.3,1.3c-1.7,1.7-3.5,3.2-5.4,4.6c3.9,5.9,5.4,13.1,4.1,20.1
			c-1.3,7.8-6.4,14.4-13.6,17.6c-6.3,2.8-11.9,1.7-16.8-3.2s-3.3-10.8,0.2-14.3c2-2,4.2-3.2,6.1-3.2l0,0c1.2,0,2.3,0.5,3.1,1.3
			c0.8,0.9,0.8,2.2,0,3.1l6.3,6.3c4.3-4.3,4.3-11.3-0.1-15.7c-2.5-2.5-5.9-3.9-9.4-3.9l0,0c-4.3,0-8.7,2.1-12.4,5.8
			c-5,5-7.5,13-4.5,20.3c-7.3-2.9-15.3-0.4-20.3,4.5c-3.7,3.7-5.8,8.1-5.8,12.4c0,3.5,1.4,6.9,3.9,9.4c4.3,4.3,11.3,4.3,15.7,0.1
			l-6.2-6.3c-0.9,0.8-2.2,0.8-3.1,0c-0.9-0.8-1.3-2-1.3-3.1c0-2,1.1-4.1,3.2-6.1c3.5-3.5,9.5-5,14.3-0.2s6,10.5,3.2,16.8
			c-3.2,7.2-9.8,12.3-17.6,13.6c-8.6,1.6-17.4-1.1-23.6-7.1c-2.8-2.9-7.8-8.8-8.9-16.5c-0.7-5.1,0.3-10.3,2.8-14.8
			c-1.7-2.7-3.7-5.2-5.9-7.4c-5,7.6-6.9,15.5-5.7,23.6c1.5,10.2,7.8,17.8,11.4,21.4c8.4,8.1,20.1,11.7,31.6,9.6
			c10.6-1.8,19.7-8.8,24.1-18.7c3-6.7,3-13.3,0.3-19.2c5.9,2.7,12.5,2.7,19.2-0.3c9.9-4.4,16.9-13.4,18.7-24.1
			C186.3,113.2,184.1,103.2,178.3,95.2z"/>
		<path class="st1" d="M100.3,168.4c2.9-4.3,4.8-9.1,5.6-14.2c1.7-11.2-2.6-22.1-12.8-32.3c-5.1-5.1-7.6-8.7-7.1-13.7l0.6-9.2
			l-8.9,1c-4.3,0.4-7.5-1.3-11.4-4.9L66,95.2c-2,2-4.2,3.9-6.5,5.7c4.5,4.3,10,8.2,17.5,8c-0.2,8.6,4.9,14.5,9.8,19.4
			c8.1,8.1,11.6,16.4,10.3,24.7c-0.5,2.9-1.4,5.7-2.8,8.3c1.4,2.2,3,4.2,4.8,6.1C99.4,167.6,99.9,168,100.3,168.4z"/>
		<path class="st1" d="M84.2,172.6c-5.8,3.7-12.9,5.1-19.7,3.9c-7.8-1.3-14.4-6.4-17.6-13.6c-2.8-6.2-1.7-11.9,3.2-16.8
			c1.8-1.9,4.3-3,6.9-3.1c2.8,0.1,5.5,1.2,7.4,3.2c2,2,3.2,4.2,3.2,6.1c0,1.2-0.5,2.3-1.3,3.1c-0.9,0.8-2.3,0.8-3.1,0l-6.3,6.3
			c4.3,4.3,11.3,4.3,15.7-0.1c2.5-2.5,3.9-5.9,3.9-9.4c0-4.3-2-8.7-5.8-12.4c-5-5-13-7.5-20.3-4.5c2.9-7.3,0.4-15.3-4.5-20.3
			c-3.7-3.7-8.1-5.8-12.4-5.8c-3.5,0-6.9,1.4-9.4,3.9c-4.3,4.3-4.3,11.3,0,15.7l6.3-6.2c-0.8-0.9-0.8-2.3,0-3.1
			c0.8-0.9,2-1.3,3.2-1.3l0,0c1.9,0,4.1,1.1,6.1,3.2c3.5,3.5,5,9.5,0.2,14.3s-10.5,6-16.8,3.2c-7.2-3.2-12.2-9.8-13.5-17.5
			c-1.6-8.6,1-17.4,7.1-23.7c2.9-2.8,8.8-7.8,16.5-8.9c4.9-0.7,9.9,0.2,14.3,2.6c2.8-1.6,5.3-3.6,7.6-5.9
			c-7.5-4.8-15.3-6.7-23.2-5.5c-10.2,1.5-17.8,7.8-21.4,11.4C2,99.6-1.5,111.4,0.6,122.9c1.8,10.7,8.8,19.7,18.7,24.1
			c6.7,3,13.3,3,19.2,0.3c-2.7,5.9-2.7,12.5,0.3,19.2c4.4,9.9,13.4,16.9,24.1,18.7c2.1,0.4,4.3,0.6,6.5,0.6c7.5,0,14.7-2.3,20.8-6.6
			c-0.6-0.5-1.1-1-1.6-1.5C87,176.1,85.5,174.4,84.2,172.6z"/>
		<path class="st2" d="M184.5,62.9c-1.8-10.6-8.8-19.7-18.7-24.1c-6.7-3-13.3-3-19.2-0.3c2.7-5.9,2.7-12.5-0.3-19.2
			c-4.4-9.9-13.4-16.9-24.1-18.7c-9.5-1.7-19.4,0.4-27.3,6c0.6,0.5,1.1,1,1.6,1.5c1.6,1.6,3,3.3,4.4,5.1c5.8-3.7,12.9-5.1,19.7-3.9
			c7.8,1.3,14.4,6.4,17.6,13.6c2.8,6.3,1.7,11.9-3.2,16.8s-10.8,3.3-14.3-0.2c-2-2-3.2-4.2-3.2-6.2c0-1.2,0.5-2.3,1.3-3.1
			c0.9-0.8,2.2-0.8,3.1,0l6.3-6.3c-4.3-4.3-11.3-4.3-15.7,0c-2.5,2.5-3.9,5.9-3.9,9.4c0,4.3,2.1,8.7,5.8,12.4c5,5,13,7.5,20.3,4.5
			c-3,7.3-0.4,15.3,4.5,20.3c3.7,3.7,8.1,5.8,12.4,5.8l0,0c3.5,0,6.9-1.4,9.4-3.9c4.3-4.3,4.3-11.3,0.1-15.7l-6.3,6.3
			c0.8,0.9,0.8,2.3,0,3.1c-0.8,0.9-2,1.3-3.1,1.3l0,0c-1.9,0-4.1-1.1-6.1-3.2c-3.5-3.5-5-9.5-0.2-14.3s10.6-6,16.8-3.2
			c7.2,3.2,12.3,9.8,13.6,17.6c1.6,8.6-1,17.4-7.1,23.7c-2.9,2.8-8.8,7.8-16.5,8.9c-4.9,0.7-9.9-0.2-14.3-2.6
			c-2.8,1.6-5.3,3.6-7.6,5.9c5.5,3.7,11.9,5.7,18.5,5.8c1.6,0,3.1-0.1,4.7-0.4c10.2-1.5,17.8-7.8,21.4-11.4
			C183.1,86.1,186.7,74.3,184.5,62.9z"/>
		<path class="st3" d="M84.6,59.8c-4.1,4.5-7.8,9.8-7.6,17.2c-8.6-0.2-14.5,4.9-19.4,9.8c-8.1,8.1-16.4,11.6-24.7,10.3
			c-2.7-0.4-5.3-1.3-7.8-2.6c-2.4,1.4-4.7,3.1-6.6,5.1c-0.3,0.3-0.5,0.6-0.8,0.8c4.2,2.7,8.9,4.6,13.9,5.4c1.6,0.2,3.1,0.3,4.7,0.3
			c9.5,0,18.8-4.4,27.6-13.2c5.1-5.1,8.7-7.6,13.8-7.1l9.2,0.6l-1-8.9c-0.4-4.2,1.2-7.3,4.6-11.1L90,66C88.1,64.1,86.3,62,84.6,59.8
			z"/>
		<path class="st3" d="M105.9,31.6c-1.5-10.2-7.8-17.8-11.4-21.4C86.1,2.1,74.3-1.5,62.9,0.6C52.2,2.4,43.2,9.4,38.8,19.3
			c-3,6.7-3,13.3-0.3,19.2c-5.9-2.7-12.5-2.7-19.2,0.3C9.4,43.2,2.4,52.2,0.6,62.9c-1.8,9.7,0.5,19.7,6.2,27.7
			c0.4-0.4,0.8-0.9,1.3-1.3c1.7-1.7,3.5-3.2,5.4-4.6C9.5,78.7,8,71.5,9.3,64.5c1.3-7.8,6.4-14.4,13.6-17.6c2.1-1,4.3-1.5,6.6-1.5
			c3.7,0,7.1,1.6,10.2,4.7c4.8,4.9,3.3,10.8-0.2,14.3c-2,2-4.2,3.2-6.1,3.2l0,0c-1.2,0-2.3-0.5-3.1-1.3c-0.8-0.9-0.8-2.3,0-3.1
			l-6.3-6.3c-4.3,4.3-4.3,11.3,0,15.7c2.5,2.5,5.9,3.9,9.4,3.9l0,0c4.3,0,8.7-2,12.4-5.8c5-5,7.5-13,4.5-20.3
			c7.3,2.9,15.3,0.4,20.3-4.5c3.7-3.7,5.8-8.1,5.8-12.4c0-3.5-1.4-6.9-3.9-9.4c-4.3-4.3-11.3-4.3-15.7,0l6.3,6.3
			c0.9-0.8,2.3-0.8,3.1,0c0.9,0.8,1.3,2,1.3,3.2c0,1.9-1.1,4.1-3.2,6.2c-3.5,3.5-9.5,5-14.3,0.2s-6-10.5-3.2-16.8
			c3.2-7.2,9.8-12.3,17.6-13.6c8.6-1.6,17.4,1,23.7,7.1c2.8,2.9,7.8,8.8,8.9,16.6c0.7,5.1-0.3,10.3-2.8,14.8
			c1.7,2.7,3.7,5.2,5.9,7.4C105.2,47.6,107.1,39.7,105.9,31.6z"/>
		<path class="st2" d="M108.1,77c0.2-8.6-4.9-14.5-9.8-19.4C90.3,49.5,86.8,41.2,88,32.9c0.5-2.9,1.4-5.7,2.8-8.3
			c-1.4-2.2-3-4.3-4.8-6.1c-0.4-0.4-0.8-0.8-1.2-1.1c-2.9,4.3-4.8,9.1-5.6,14.2c-1.7,11.2,2.6,22.1,12.8,32.3
			c5.1,5.1,7.6,8.7,7.1,13.8l-0.6,9.2l8.9-1c4.3-0.4,7.5,1.3,11.4,4.9c0.1-0.1,0.1-0.1,0.2-0.2c2-2,4.2-3.9,6.5-5.6
			c-4.4-4.2-9.7-8-16.9-8H108.1"/>
		<g class="st4">
			<path class="st3" d="M234,138.2v-15.4h6.6c1.4,0,2.5,0.4,3.3,1.3c0.8,0.8,1.2,2,1.2,3.4c0,1.4-0.4,2.5-1.2,3.4
				c-0.8,0.8-1.9,1.3-3.3,1.3h-4.1v6.1H234z M236.5,129.8h4c0.6,0,1.1-0.2,1.5-0.5c0.4-0.3,0.5-0.8,0.5-1.4v-1.1
				c0-0.6-0.2-1.1-0.5-1.4c-0.4-0.3-0.8-0.5-1.5-0.5h-4V129.8z"/>
			<path class="st3" d="M251.7,138.5c-0.8,0-1.6-0.1-2.2-0.4c-0.6-0.3-1.2-0.7-1.7-1.2c-0.5-0.5-0.8-1.2-1-1.9
				c-0.2-0.7-0.4-1.6-0.4-2.5s0.1-1.7,0.4-2.5c0.2-0.7,0.6-1.4,1-1.9c0.5-0.5,1-0.9,1.7-1.2c0.6-0.3,1.4-0.4,2.2-0.4
				c0.8,0,1.6,0.1,2.2,0.4c0.6,0.3,1.2,0.7,1.6,1.2s0.7,1.1,1,1.8s0.3,1.4,0.3,2.2v0.9h-7.9v0.4c0,0.9,0.3,1.6,0.8,2.2
				c0.5,0.6,1.3,0.8,2.2,0.8c0.7,0,1.3-0.2,1.8-0.5c0.5-0.3,0.9-0.7,1.2-1.3l1.4,1.4c-0.4,0.7-1,1.3-1.9,1.7
				C253.7,138.2,252.8,138.5,251.7,138.5z M251.7,128.3c-0.4,0-0.8,0.1-1.1,0.2c-0.3,0.1-0.6,0.4-0.9,0.6c-0.2,0.3-0.4,0.6-0.6,1
				c-0.1,0.4-0.2,0.8-0.2,1.2v0.2h5.3v-0.2c0-0.9-0.2-1.6-0.7-2.1C253.1,128.6,252.5,128.3,251.7,128.3z"/>
			<path class="st3" d="M267.9,138.2c-0.6,0-1.1-0.2-1.5-0.5s-0.5-0.8-0.6-1.4h-0.1c-0.2,0.7-0.6,1.3-1.2,1.6s-1.3,0.6-2.1,0.6
				c-1.2,0-2.1-0.3-2.8-0.9c-0.6-0.6-1-1.5-1-2.5c0-1.1,0.4-2,1.2-2.6c0.8-0.6,2.1-0.9,3.7-0.9h2.1v-1c0-0.7-0.2-1.3-0.6-1.6
				c-0.4-0.4-1-0.6-1.8-0.6c-0.7,0-1.2,0.1-1.7,0.4c-0.4,0.3-0.8,0.7-1.1,1.1l-1.4-1.3c0.4-0.6,0.9-1.2,1.6-1.6
				c0.7-0.4,1.6-0.6,2.7-0.6c1.5,0,2.6,0.3,3.4,1c0.8,0.7,1.2,1.7,1.2,3v5.8h1.2v2H267.9z M263.1,136.6c0.8,0,1.4-0.2,1.9-0.5
				c0.5-0.3,0.7-0.8,0.7-1.3v-1.7h-2c-1.7,0-2.5,0.5-2.5,1.5v0.4c0,0.5,0.2,0.9,0.5,1.2S262.4,136.6,263.1,136.6z"/>
			<path class="st3" d="M276.1,138.5c-0.8,0-1.6-0.1-2.2-0.4c-0.6-0.3-1.2-0.7-1.6-1.2s-0.8-1.2-1-1.9c-0.2-0.7-0.4-1.6-0.4-2.5
				s0.1-1.7,0.4-2.5c0.2-0.7,0.6-1.4,1-1.9s1-0.9,1.6-1.2c0.6-0.3,1.4-0.4,2.2-0.4c1.1,0,2.1,0.3,2.8,0.8s1.3,1.2,1.6,2.1l-2,0.9
				c-0.2-0.5-0.4-1-0.9-1.3c-0.4-0.3-0.9-0.5-1.6-0.5c-0.9,0-1.6,0.3-2,0.8c-0.4,0.6-0.7,1.3-0.7,2.1v2c0,0.9,0.2,1.6,0.7,2.1
				c0.4,0.6,1.1,0.8,2,0.8c0.7,0,1.3-0.2,1.7-0.5c0.4-0.3,0.8-0.8,1-1.4l1.8,1c-0.4,0.9-1,1.7-1.7,2.2
				C278.1,138.2,277.2,138.5,276.1,138.5z"/>
			<path class="st3" d="M287.3,138.5c-0.8,0-1.6-0.1-2.2-0.4c-0.6-0.3-1.2-0.7-1.7-1.2c-0.5-0.5-0.8-1.2-1-1.9
				c-0.2-0.7-0.4-1.6-0.4-2.5s0.1-1.7,0.4-2.5c0.2-0.7,0.6-1.4,1-1.9c0.5-0.5,1-0.9,1.7-1.2s1.4-0.4,2.2-0.4c0.8,0,1.6,0.1,2.2,0.4
				c0.6,0.3,1.2,0.7,1.6,1.2c0.4,0.5,0.7,1.1,1,1.8c0.2,0.7,0.3,1.4,0.3,2.2v0.9h-7.9v0.4c0,0.9,0.3,1.6,0.8,2.2s1.3,0.8,2.2,0.8
				c0.7,0,1.3-0.2,1.8-0.5c0.5-0.3,0.9-0.7,1.2-1.3l1.4,1.4c-0.4,0.7-1,1.3-1.9,1.7C289.3,138.2,288.3,138.5,287.3,138.5z
				 M287.3,128.3c-0.4,0-0.8,0.1-1.1,0.2s-0.6,0.4-0.9,0.6c-0.2,0.3-0.4,0.6-0.6,1c-0.1,0.4-0.2,0.8-0.2,1.2v0.2h5.3v-0.2
				c0-0.9-0.2-1.6-0.7-2.1C288.7,128.6,288.1,128.3,287.3,128.3z"/>
			<path class="st3" d="M296.1,138.5c-0.5,0-1-0.1-1.2-0.4c-0.3-0.3-0.4-0.6-0.4-1.1v-0.3c0-0.4,0.1-0.8,0.4-1.1
				c0.3-0.3,0.7-0.4,1.2-0.4c0.5,0,0.9,0.1,1.2,0.4c0.3,0.3,0.4,0.6,0.4,1.1v0.3c0,0.4-0.1,0.8-0.4,1.1
				C297.1,138.3,296.7,138.5,296.1,138.5z"/>
			<path class="st3" d="M306.4,138.2v-15.4h6.6c1.4,0,2.5,0.4,3.3,1.3c0.8,0.8,1.2,2,1.2,3.4c0,1.4-0.4,2.5-1.2,3.4
				c-0.8,0.8-1.9,1.3-3.3,1.3h-4.1v6.1H306.4z M308.9,129.8h4c0.6,0,1.1-0.2,1.5-0.5c0.4-0.3,0.5-0.8,0.5-1.4v-1.1
				c0-0.6-0.2-1.1-0.5-1.4c-0.4-0.3-0.8-0.5-1.5-0.5h-4V129.8z"/>
			<path class="st3" d="M319.9,138.2v-11.5h2.4v2.2h0.1c0.2-0.6,0.5-1.1,1-1.5c0.5-0.4,1.2-0.7,2.1-0.7h0.6v2.3h-0.9
				c-1,0-1.7,0.2-2.2,0.5c-0.5,0.3-0.8,0.8-0.8,1.4v7.3H319.9z"/>
			<path class="st3" d="M332.7,138.5c-0.8,0-1.5-0.1-2.2-0.4c-0.7-0.3-1.2-0.7-1.7-1.2s-0.8-1.2-1.1-1.9c-0.2-0.7-0.4-1.6-0.4-2.5
				s0.1-1.7,0.4-2.5c0.3-0.7,0.6-1.4,1.1-1.9s1-0.9,1.7-1.2s1.4-0.4,2.2-0.4s1.5,0.1,2.2,0.4s1.2,0.7,1.7,1.2
				c0.5,0.5,0.8,1.2,1.1,1.9c0.2,0.7,0.4,1.6,0.4,2.5s-0.1,1.7-0.4,2.5c-0.3,0.7-0.6,1.4-1.1,1.9c-0.5,0.5-1,0.9-1.7,1.2
				C334.3,138.3,333.5,138.5,332.7,138.5z M332.7,136.4c0.8,0,1.5-0.3,2-0.8c0.5-0.5,0.8-1.3,0.8-2.3v-1.9c0-1-0.3-1.8-0.8-2.3
				c-0.5-0.5-1.2-0.8-2-0.8s-1.5,0.3-2,0.8c-0.5,0.5-0.8,1.3-0.8,2.3v1.9c0,1,0.2,1.8,0.8,2.3C331.3,136.2,331.9,136.4,332.7,136.4z
				"/>
			<path class="st3" d="M344.3,138.5c-1.1,0-2-0.2-2.7-0.6c-0.7-0.4-1.4-0.9-1.9-1.6l1.5-1.4c0.4,0.5,0.9,0.9,1.4,1.2
				s1.1,0.4,1.8,0.4c0.7,0,1.2-0.1,1.6-0.4c0.3-0.3,0.5-0.7,0.5-1.1c0-0.4-0.1-0.7-0.4-0.9s-0.7-0.4-1.3-0.5l-1.1-0.1
				c-1.2-0.1-2.1-0.5-2.8-1c-0.7-0.5-1-1.3-1-2.4c0-0.6,0.1-1.1,0.3-1.5c0.2-0.4,0.5-0.8,0.9-1.1c0.4-0.3,0.8-0.5,1.3-0.7
				s1.1-0.2,1.7-0.2c1,0,1.9,0.2,2.5,0.5s1.2,0.8,1.8,1.3l-1.5,1.4c-0.3-0.4-0.7-0.7-1.2-0.9s-1-0.4-1.6-0.4c-0.7,0-1.2,0.1-1.5,0.4
				c-0.3,0.3-0.5,0.6-0.5,1c0,0.4,0.1,0.8,0.4,1c0.3,0.2,0.7,0.4,1.3,0.5l1.1,0.1c1.3,0.2,2.2,0.6,2.8,1.1c0.6,0.6,0.9,1.3,0.9,2.2
				c0,0.6-0.1,1.1-0.3,1.5c-0.2,0.5-0.5,0.8-0.9,1.2c-0.4,0.3-0.9,0.6-1.4,0.8S345,138.5,344.3,138.5z"/>
			<path class="st3" d="M351.6,126.7h2.4v1.9h0.1c0.2-0.7,0.7-1.2,1.2-1.6c0.6-0.4,1.2-0.6,2-0.6c1.5,0,2.6,0.5,3.4,1.6
				c0.8,1.1,1.2,2.5,1.2,4.4c0,1.9-0.4,3.4-1.2,4.4c-0.8,1.1-1.9,1.6-3.4,1.6c-0.8,0-1.4-0.2-2-0.6c-0.6-0.4-1-0.9-1.2-1.6H354v6.3
				h-2.4V126.7z M356.6,136.4c0.8,0,1.5-0.3,2-0.8c0.5-0.5,0.8-1.2,0.8-2.1v-2c0-0.9-0.2-1.6-0.8-2.1c-0.5-0.5-1.2-0.8-2-0.8
				c-0.7,0-1.4,0.2-1.9,0.5c-0.5,0.4-0.8,0.8-0.8,1.4v3.9c0,0.6,0.2,1.1,0.8,1.4C355.3,136.2,355.9,136.4,356.6,136.4z"/>
			<path class="st3" d="M369.2,138.5c-0.8,0-1.6-0.1-2.2-0.4c-0.6-0.3-1.2-0.7-1.7-1.2s-0.8-1.2-1-1.9c-0.2-0.7-0.4-1.6-0.4-2.5
				s0.1-1.7,0.4-2.5c0.2-0.7,0.6-1.4,1-1.9s1-0.9,1.7-1.2c0.6-0.3,1.4-0.4,2.2-0.4c0.8,0,1.6,0.1,2.2,0.4c0.6,0.3,1.2,0.7,1.6,1.2
				c0.4,0.5,0.7,1.1,1,1.8c0.2,0.7,0.3,1.4,0.3,2.2v0.9h-7.9v0.4c0,0.9,0.3,1.6,0.8,2.2c0.5,0.6,1.3,0.8,2.2,0.8
				c0.7,0,1.3-0.2,1.8-0.5c0.5-0.3,0.9-0.7,1.2-1.3l1.4,1.4c-0.4,0.7-1,1.3-1.9,1.7C371.2,138.2,370.3,138.5,369.2,138.5z
				 M369.2,128.3c-0.4,0-0.8,0.1-1.1,0.2c-0.3,0.1-0.6,0.4-0.9,0.6c-0.2,0.3-0.4,0.6-0.6,1s-0.2,0.8-0.2,1.2v0.2h5.3v-0.2
				c0-0.9-0.2-1.6-0.7-2.1C370.6,128.6,370,128.3,369.2,128.3z"/>
			<path class="st3" d="M377,138.2v-11.5h2.4v2.2h0.1c0.2-0.6,0.5-1.1,1-1.5c0.5-0.4,1.2-0.7,2.1-0.7h0.6v2.3h-0.9
				c-1,0-1.7,0.2-2.2,0.5c-0.5,0.3-0.8,0.8-0.8,1.4v7.3H377z"/>
			<path class="st3" d="M386.6,124.6c-0.5,0-0.9-0.1-1.1-0.4s-0.3-0.5-0.3-0.9V123c0-0.4,0.1-0.7,0.3-0.9c0.2-0.2,0.6-0.4,1.1-0.4
				c0.5,0,0.9,0.1,1.1,0.4c0.2,0.2,0.3,0.5,0.3,0.9v0.4c0,0.4-0.1,0.7-0.3,0.9S387.1,124.6,386.6,124.6z M385.4,126.7h2.4v11.5h-2.4
				V126.7z"/>
			<path class="st3" d="M394.5,138.2c-0.8,0-1.5-0.2-1.9-0.7c-0.4-0.4-0.6-1-0.6-1.8v-7h-1.8v-2h1c0.4,0,0.7-0.1,0.8-0.3
				s0.2-0.5,0.2-0.9v-2h2.2v3.1h2.4v2h-2.4v7.6h2.2v2H394.5z"/>
			<path class="st3" d="M406.4,126.7h2.3l-4.8,13.8c-0.1,0.4-0.3,0.7-0.5,1c-0.2,0.3-0.4,0.5-0.6,0.7c-0.2,0.2-0.5,0.3-0.8,0.4
				c-0.3,0.1-0.7,0.1-1.1,0.1h-1.4v-2h1.9l0.7-1.9l-4.2-12h2.4l2.3,6.8l0.7,2.5h0.1l0.7-2.5L406.4,126.7z"/>
			<path class="st3" d="M411.1,138.5c-0.5,0-1-0.1-1.2-0.4c-0.3-0.3-0.4-0.6-0.4-1.1v-0.3c0-0.4,0.1-0.8,0.4-1.1
				c0.3-0.3,0.7-0.4,1.2-0.4c0.5,0,0.9,0.1,1.2,0.4c0.3,0.3,0.4,0.6,0.4,1.1v0.3c0,0.4-0.1,0.8-0.4,1.1
				C412,138.3,411.6,138.5,411.1,138.5z"/>
			<path class="st3" d="M421.4,138.2v-15.4h6.6c1.4,0,2.5,0.4,3.3,1.3c0.8,0.8,1.2,2,1.2,3.4c0,1.4-0.4,2.5-1.2,3.4
				c-0.8,0.8-1.9,1.3-3.3,1.3h-4.1v6.1H421.4z M423.9,129.8h4c0.6,0,1.1-0.2,1.5-0.5c0.4-0.3,0.5-0.8,0.5-1.4v-1.1
				c0-0.6-0.2-1.1-0.5-1.4c-0.4-0.3-0.8-0.5-1.5-0.5h-4V129.8z"/>
			<path class="st3" d="M443.2,138.2c-0.6,0-1.1-0.2-1.5-0.5s-0.5-0.8-0.6-1.4H441c-0.2,0.7-0.6,1.3-1.2,1.6s-1.3,0.6-2.1,0.6
				c-1.2,0-2.1-0.3-2.8-0.9c-0.6-0.6-1-1.5-1-2.5c0-1.1,0.4-2,1.2-2.6s2.1-0.9,3.7-0.9h2.1v-1c0-0.7-0.2-1.3-0.6-1.6
				c-0.4-0.4-1-0.6-1.8-0.6c-0.7,0-1.2,0.1-1.7,0.4s-0.8,0.7-1.1,1.1l-1.4-1.3c0.4-0.6,0.9-1.2,1.6-1.6c0.7-0.4,1.6-0.6,2.7-0.6
				c1.5,0,2.6,0.3,3.4,1c0.8,0.7,1.2,1.7,1.2,3v5.8h1.2v2H443.2z M438.3,136.6c0.8,0,1.4-0.2,1.9-0.5c0.5-0.3,0.7-0.8,0.7-1.3v-1.7
				h-2c-1.7,0-2.5,0.5-2.5,1.5v0.4c0,0.5,0.2,0.9,0.5,1.2C437.3,136.5,437.7,136.6,438.3,136.6z"/>
			<path class="st3" d="M446.9,138.2v-11.5h2.4v2.2h0.1c0.2-0.6,0.5-1.1,1-1.5c0.5-0.4,1.2-0.7,2.1-0.7h0.6v2.3h-1
				c-1,0-1.7,0.2-2.2,0.5c-0.5,0.3-0.8,0.8-0.8,1.4v7.3H446.9z"/>
			<path class="st3" d="M458.6,138.2c-0.8,0-1.5-0.2-1.9-0.7c-0.4-0.4-0.6-1-0.6-1.8v-7h-1.8v-2h1c0.4,0,0.7-0.1,0.8-0.3
				s0.2-0.5,0.2-0.9v-2h2.2v3.1h2.4v2h-2.4v7.6h2.2v2H458.6z"/>
			<path class="st3" d="M463.5,138.2v-11.5h2.4v1.9h0.1c0.3-0.6,0.6-1.1,1.1-1.5c0.5-0.4,1.2-0.6,2.1-0.6c1.2,0,2.1,0.4,2.8,1.2
				c0.7,0.8,1,1.9,1,3.3v7.3h-2.4v-7c0-1.8-0.7-2.7-2.2-2.7c-0.3,0-0.6,0-0.9,0.1c-0.3,0.1-0.6,0.2-0.8,0.4s-0.4,0.4-0.6,0.6
				c-0.1,0.3-0.2,0.5-0.2,0.9v7.7H463.5z"/>
			<path class="st3" d="M480.8,138.5c-0.8,0-1.6-0.1-2.2-0.4c-0.6-0.3-1.2-0.7-1.7-1.2s-0.8-1.2-1-1.9c-0.2-0.7-0.4-1.6-0.4-2.5
				s0.1-1.7,0.4-2.5c0.2-0.7,0.6-1.4,1-1.9s1-0.9,1.7-1.2c0.6-0.3,1.4-0.4,2.2-0.4c0.8,0,1.6,0.1,2.2,0.4c0.6,0.3,1.2,0.7,1.6,1.2
				c0.4,0.5,0.7,1.1,1,1.8c0.2,0.7,0.3,1.4,0.3,2.2v0.9H478v0.4c0,0.9,0.3,1.6,0.8,2.2c0.5,0.6,1.3,0.8,2.2,0.8
				c0.7,0,1.3-0.2,1.8-0.5c0.5-0.3,0.9-0.7,1.2-1.3l1.4,1.4c-0.4,0.7-1,1.3-1.9,1.7C482.9,138.2,481.9,138.5,480.8,138.5z
				 M480.8,128.3c-0.4,0-0.8,0.1-1.1,0.2c-0.3,0.1-0.6,0.4-0.9,0.6c-0.2,0.3-0.4,0.6-0.6,1s-0.2,0.8-0.2,1.2v0.2h5.3v-0.2
				c0-0.9-0.2-1.6-0.7-2.1C482.3,128.6,481.6,128.3,480.8,128.3z"/>
			<path class="st3" d="M488.6,138.2v-11.5h2.4v2.2h0.1c0.2-0.6,0.5-1.1,1-1.5c0.5-0.4,1.2-0.7,2.1-0.7h0.6v2.3H494
				c-1,0-1.7,0.2-2.2,0.5c-0.5,0.3-0.8,0.8-0.8,1.4v7.3H488.6z"/>
			<path class="st3" d="M500.7,138.5c-1.1,0-2-0.2-2.7-0.6s-1.4-0.9-1.9-1.6l1.5-1.4c0.4,0.5,0.9,0.9,1.4,1.2
				c0.5,0.3,1.1,0.4,1.8,0.4c0.7,0,1.2-0.1,1.6-0.4c0.3-0.3,0.5-0.7,0.5-1.1c0-0.4-0.1-0.7-0.4-0.9c-0.2-0.3-0.7-0.4-1.3-0.5
				l-1.1-0.1c-1.2-0.1-2.1-0.5-2.8-1c-0.7-0.5-1-1.3-1-2.4c0-0.6,0.1-1.1,0.3-1.5c0.2-0.4,0.5-0.8,0.9-1.1c0.4-0.3,0.8-0.5,1.3-0.7
				c0.5-0.2,1.1-0.2,1.7-0.2c1,0,1.9,0.2,2.5,0.5c0.7,0.3,1.2,0.8,1.8,1.3l-1.5,1.4c-0.3-0.4-0.7-0.7-1.2-0.9s-1-0.4-1.6-0.4
				c-0.7,0-1.2,0.1-1.5,0.4c-0.3,0.3-0.5,0.6-0.5,1c0,0.4,0.1,0.8,0.4,1c0.3,0.2,0.7,0.4,1.3,0.5l1.1,0.1c1.3,0.2,2.2,0.6,2.8,1.1
				c0.6,0.6,0.9,1.3,0.9,2.2c0,0.6-0.1,1.1-0.3,1.5c-0.2,0.5-0.5,0.8-0.9,1.2s-0.9,0.6-1.4,0.8C502,138.4,501.4,138.5,500.7,138.5z"
				/>
			<path class="st3" d="M508,121.8h2.4v6.8h0.1c0.3-0.6,0.6-1.1,1.1-1.5c0.5-0.4,1.2-0.6,2.1-0.6c1.2,0,2.1,0.4,2.8,1.2
				c0.7,0.8,1,1.9,1,3.3v7.3h-2.4v-7c0-1.8-0.7-2.7-2.2-2.7c-0.3,0-0.6,0-0.9,0.1c-0.3,0.1-0.6,0.2-0.8,0.4s-0.4,0.4-0.6,0.6
				c-0.1,0.3-0.2,0.5-0.2,0.9v7.7H508V121.8z"/>
			<path class="st3" d="M522,124.6c-0.5,0-0.9-0.1-1.1-0.4c-0.2-0.2-0.3-0.5-0.3-0.9V123c0-0.4,0.1-0.7,0.3-0.9
				c0.2-0.2,0.6-0.4,1.1-0.4s0.9,0.1,1.1,0.4c0.2,0.2,0.3,0.5,0.3,0.9v0.4c0,0.4-0.1,0.7-0.3,0.9C522.9,124.5,522.5,124.6,522,124.6
				z M520.8,126.7h2.4v11.5h-2.4V126.7z"/>
			<path class="st3" d="M526.6,126.7h2.4v1.9h0.1c0.2-0.7,0.7-1.2,1.2-1.6c0.6-0.4,1.2-0.6,2-0.6c1.5,0,2.6,0.5,3.4,1.6
				c0.8,1.1,1.2,2.5,1.2,4.4c0,1.9-0.4,3.4-1.2,4.4c-0.8,1.1-1.9,1.6-3.4,1.6c-0.8,0-1.4-0.2-2-0.6c-0.6-0.4-1-0.9-1.2-1.6h-0.1v6.3
				h-2.4V126.7z M531.7,136.4c0.8,0,1.5-0.3,2-0.8c0.5-0.5,0.8-1.2,0.8-2.1v-2c0-0.9-0.2-1.6-0.8-2.1c-0.5-0.5-1.2-0.8-2-0.8
				c-0.7,0-1.4,0.2-1.9,0.5c-0.5,0.4-0.8,0.8-0.8,1.4v3.9c0,0.6,0.2,1.1,0.8,1.4C530.3,136.2,530.9,136.4,531.7,136.4z"/>
			<path class="st3" d="M540.8,138.5c-0.5,0-1-0.1-1.2-0.4c-0.3-0.3-0.4-0.6-0.4-1.1v-0.3c0-0.4,0.1-0.8,0.4-1.1
				c0.3-0.3,0.7-0.4,1.2-0.4c0.5,0,0.9,0.1,1.2,0.4c0.3,0.3,0.4,0.6,0.4,1.1v0.3c0,0.4-0.1,0.8-0.4,1.1
				C541.8,138.3,541.4,138.5,540.8,138.5z"/>
		</g>
		<polygon class="st5" points="279.5,41.7 279.5,41.7 264.6,85.7 249.8,41.7 249.8,41.7 234.1,41.7 234.1,41.7 234.1,107.1 
			234.1,107.1 245.1,107.1 245.1,107.1 245.1,61.9 260.3,107.1 260.3,107.1 269,107.1 269,107.1 284.2,61.9 284.2,107.1 
			284.2,107.1 295.2,107.1 295.2,107.1 295.2,41.7 295.2,41.7 		"/>
		<polygon class="st5" points="309.5,41.8 309.5,41.8 309.5,107.1 309.5,107.1 353.9,107.1 353.9,107.1 353.9,96.1 353.9,96.1 
			320.4,96.1 320.4,79.9 342.7,79.9 342.7,79.9 342.7,69 342.7,69 320.4,69 320.4,52.8 353.9,52.8 353.9,52.8 353.9,41.8 
			353.9,41.8 		"/>
		<polygon class="st5" points="367.6,41.7 367.6,41.7 367.6,107.2 367.6,107.2 378.5,107.2 378.5,107.2 378.5,41.7 378.5,41.7 		"/>
		<path class="st5" d="M539.3,42h-28.3L502,63.7l0,0v0.1l-4.2,10.1h10.9l0,0h4.5c7.1,0.1,12.9,5.9,12.8,13.1
			c-0.1,7.1-5.9,12.9-13.1,12.8c-5.1-0.1-9.7-3.2-11.8-7.9l0,0l-9.4,4c3.6,8.6,12.1,14.2,21.4,14.1l0,0
			c12.7-0.3,22.9-10.8,22.6-23.6c-0.3-12.4-10.2-22.3-22.6-22.6H513l4.5-10.8h21.9L539.3,42L539.3,42z"/>
		<polygon class="st5" points="501,41.7 489.1,41.7 489.1,41.7 489,41.8 456.5,41.8 456.5,41.8 456.5,52.8 456.5,52.8 484.6,52.8 
			462.5,107.2 462.5,107.2 474.5,107.2 474.5,107.2 501,41.7 		"/>
		<path class="st3" d="M443.2,50.2c-2.7-2.6-5.9-4.6-9.5-5.9c-3.9-1.4-8.1-2.1-12.3-2.1l0,0c-4.5-0.1-8.9,0.8-13,2.4
			c-3.7,1.5-7.1,3.8-9.8,6.8c-2.8,3-4.9,6.5-6.2,10.3c-1.5,4.2-2.2,8.7-2.2,13.2c0,4.4,0.7,8.8,2.1,13c1.3,3.8,3.4,7.2,6.1,10.2
			c2.8,2.9,6.1,5.1,9.8,6.6c4.2,1.6,8.7,2.4,13.2,2.3h16.4v-6.9h-16.4c-3.4,0.1-6.8-0.5-10-1.7c-2.8-1.1-5.4-2.7-7.5-4.8
			c-2.1-2.1-3.8-4.7-4.8-7.5c-1.1-3.1-1.7-6.4-1.7-9.7v-3c0-3.3,0.5-6.7,1.7-9.8c2.1-5.8,6.6-10.5,12.4-12.8c3.2-1.2,6.6-1.9,10-1.8
			c3.1,0,6.2,0.5,9.2,1.5c2.7,0.9,5.1,2.3,7.2,4.2c2,1.9,3.6,4.2,4.7,6.7c1.2,2.9,1.7,5.9,1.7,9v2.2c0,4-0.5,7-1.6,8.9
			c-1.1,1.9-2.5,2.8-4.3,2.8c-2.3,0-3.4-1.3-3.4-3.9v-21h-8.7v5.4h-0.4c-0.5-1.7-1.4-3.2-2.7-4.3c-1.5-1.2-3.4-1.8-5.3-1.8l0,0
			c-3.3,0-6.5,1.5-8.6,4.1c-2.3,2.7-3.5,6.8-3.5,12.1c0,5.3,1.1,9.3,3.4,12c2.1,2.6,5.2,4.1,8.6,4.1l0,0c2.2,0.1,4.4-0.6,6-2
			c1.5-1.4,2.5-3.2,2.9-5.2h0.4c0.1,2.1,1.1,4.1,2.9,5.4c2,1.4,4.4,2.1,6.9,2l0,0c4.2,0.1,8.2-1.8,10.7-5.2
			c2.6-3.5,3.9-8.3,3.9-14.6c0.1-4.1-0.7-8.2-2.1-12.1C448,56,445.9,52.8,443.2,50.2z M416.5,82.2c-1.1-1.3-1.7-2.9-1.7-4.6v-5.3
			c-0.1-1.7,0.5-3.4,1.7-4.6c1.2-1.2,2.8-1.9,4.5-1.8c1.3,0,2.6,0.4,3.6,1.2c1,0.7,1.6,1.8,1.6,3v9.1c0,1.3-0.6,2.5-1.6,3.3
			c-1,1-2.3,1.5-3.6,1.5C419.3,84.1,417.6,83.4,416.5,82.2L416.5,82.2z"/>
	</g>
</g>
</svg>
