<svg class="home__logo" width="218" height="172" fill="none" xmlns="http://www.w3.org/2000/svg"><path class="l1" stroke="#282828" stroke-width="4" d="M14.727 113.98H191.92v55.749H14.727z"/><path class="l2" stroke="#282828" stroke-width="4" d="M54.568 58.231h161.171v55.749H54.568z"/><path class="l3" stroke="#282828" stroke-width="4" d="M2.798 2.482h166.35v55.749H2.798z"/><path class="l4" d="M164.105 127.36v27.202h14.417" stroke="#282828" stroke-width="4"/><path class="l5" d="m134.851 157.601 3.569-9.59m19.348 9.59-3.559-9.59m-15.789 0 7.005-18.85h1.781l7.003 18.85m-15.789 0h15.789" stroke="#282828" stroke-width="4"/><path class="l6" d="M116.277 129.227h10.463m10.458 0H126.74m0 0v27.162" stroke="#282828" stroke-width="4"/><path class="l7" d="M110.594 127.345v29.019" stroke="#282828" stroke-width="4"/><path class="l8" d="M86.91 156.378v-12.177m0 0v-15.04h8.54a7.52 7.52 0 0 1 0 15.04h-8.54Z" stroke="#282828" stroke-width="4"/><path class="l9" d="m57.668 157.601 3.57-9.59m19.347 9.59-3.559-9.59m-15.788 0 7.005-18.85h1.78l7.003 18.85m-15.788 0h15.788" stroke="#282828" stroke-width="4"/><path class="l10" d="M54.15 134.81c-2.316-3.702-6.403-6.161-11.06-6.161-7.22 0-13.072 5.913-13.072 13.206 0 7.293 5.853 13.205 13.073 13.205 4.656 0 8.743-2.458 11.06-6.16" stroke="#282828" stroke-width="4"/><path class="l11" d="M181.446 73.462h10.463m10.458 0h-10.458m0 0v27.163" stroke="#282828" stroke-width="4"/><path class="l12" d="M178.058 79.061c-2.316-3.702-6.404-6.16-11.06-6.16-7.22 0-13.073 5.912-13.073 13.205s5.853 13.205 13.073 13.205c4.656 0 8.744-2.458 11.06-6.16" stroke="#282828" stroke-width="4"/><path class="l13" d="m127.681 101.86 3.569-9.59m19.348 9.59-3.559-9.59m-15.789 0 7.005-18.85h1.781l7.003 18.85m-15.789 0h15.789" stroke="#282828" stroke-width="4"/><path class="l14" d="M110.307 100.637V88.461m0 0V73.42h8.54a7.52 7.52 0 0 1 7.52 7.52 7.52 7.52 0 0 1-7.52 7.52h-8.54Z" stroke="#282828" stroke-width="4"/><path class="l15" d="M78.439 100.628V73.51h1.338l10.33 17.012 10.33-17.012h1.338v27.118" stroke="#282828" stroke-width="4"/><path class="l16" d="M69.871 71.584v29.02" stroke="#282828" stroke-width="4"/><path class="l17" d="M141.328 15.84v27.202h14.417" stroke="#282828" stroke-width="4"/><path class="l18" d="m112.081 46.124 3.57-9.59m19.348 9.59-3.56-9.59m-15.788 0 7.005-18.85h1.781l7.002 18.85m-15.788 0h15.788" stroke="#282828" stroke-width="4"/><path class="l19" d="M105.8 15.844v29.02" stroke="#282828" stroke-width="4"/><path class="l20" d="M98.451 23.314c-2.316-3.702-6.403-6.16-11.06-6.16-7.22 0-13.073 5.912-13.073 13.205s5.853 13.205 13.074 13.205c4.656 0 8.743-2.458 11.06-6.16" stroke="#282828" stroke-width="4"/><circle class="l21" cx="54.569" cy="30.359" r="13.206" stroke="#282828" stroke-width="4"/><path class="l22" d="M17.756 37.332c2.015 4.865 5.655 6.227 8.834 6.227 3.18 0 8.755-.519 8.755-6.227 0-5.459-5.217-5.934-8.756-7.233-3.608-1.326-7.404-2.477-7.404-6.608 0-1.74.952-6.338 7.404-6.338 5.192 0 7.45 3.5 8.08 5.374m0 0 .023.069-.023-.07Z" stroke="#282828" stroke-width="4"/></svg>