<svg width="859" height="100" viewBox="0 0 859 100" fill="none" xmlns="http://www.w3.org/2000/svg">
<path d="M50.4036 0C22.5247 0 0 22.3648 0 49.9542C0 77.5435 22.5247 100 50.4036 100C57.4195 100 64.1584 98.5335 70.1588 95.967C70.7127 95.692 71.2666 95.5087 71.8205 95.2337C72.3744 94.9587 72.9283 94.7754 73.3898 94.5005L69.9742 92.7589L65.2662 86.6178L70.3435 76.7186L78.0979 76.8103L88.8986 82.2182C89.1756 81.8515 89.5448 81.4849 89.8218 81.1182C90.0987 80.7516 90.3757 80.385 90.7449 80.0183C97.0223 71.6774 100.807 61.2282 100.807 50.0458C100.715 22.3648 78.1902 0 50.4036 0ZM37.4796 76.4436L9.41605 62.3281L17.5397 46.3795L45.6032 60.495L50.3113 66.6361L45.234 76.5353L37.4796 76.4436ZM69.5126 68.286L60.9274 85.0596C60.5582 85.7012 60.0043 86.2511 59.2658 86.4345C58.5272 86.7094 57.7887 86.6178 57.0502 86.2511L50.3113 82.8598C48.9266 82.1265 48.2804 80.4766 49.0189 79.0101L57.6964 62.3281C58.0657 61.6865 58.6196 61.1366 59.3581 60.8616C60.0966 60.6783 60.8351 60.6783 61.5736 61.0449L68.3126 64.4363C69.605 65.1696 70.1588 66.9111 69.5126 68.286ZM81.2365 63.2447C80.9596 63.428 80.6827 63.5197 80.4057 63.5197C79.9441 63.5197 79.5749 63.3364 79.298 62.9698C76.6208 59.4867 73.2052 56.6453 69.2357 54.6288C65.0816 52.5206 60.6505 51.5124 56.1271 51.5124H55.9424C55.2039 51.5124 54.5577 50.8708 54.5577 50.1375C54.5577 49.4042 55.2039 48.7626 55.9424 48.7626C61.0197 48.7626 66.0047 49.9542 70.5281 52.154C74.8669 54.3538 78.5594 57.3786 81.5135 61.2282C81.8827 61.8698 81.7904 62.7864 81.2365 63.2447ZM86.0369 58.6618C85.7599 58.8451 85.483 58.9368 85.2061 58.9368C84.7445 58.9368 84.3752 58.7534 84.0983 58.3868C80.8673 54.3538 76.8978 51.0541 72.1897 48.7626C67.2971 46.2878 62.0352 45.0046 56.4963 45.0046C55.7578 45.0046 55.1116 44.363 55.1116 43.6297C55.1116 42.8964 55.7578 42.2548 56.4963 42.2548C62.4044 42.3465 68.1279 43.7214 73.3898 46.3795C78.4671 48.9459 82.7136 52.429 86.2215 56.8286C86.7754 57.2869 86.5908 58.2035 86.0369 58.6618ZM91.2065 54.2621C90.9295 54.4455 90.6526 54.5371 90.3757 54.5371C89.9141 54.5371 89.5448 54.3538 89.2679 53.9872C85.483 49.2209 80.775 45.4629 75.2361 42.7131C69.4203 39.78 63.143 38.2218 56.7733 38.1302C56.0348 38.1302 55.3886 37.4885 55.3886 36.7553C55.3886 36.022 56.0348 35.3804 56.7733 35.3804C63.6968 35.472 70.3435 37.1219 76.5285 40.2383C82.3443 43.1714 87.4216 47.2044 91.4834 52.2456C91.945 52.8873 91.8527 53.8039 91.2065 54.2621Z" fill="#004C5C"/>
<path d="M156.62 73.5773C158.864 73.5773 160.873 73.1956 162.647 72.4323C164.421 71.6689 165.921 70.6029 167.148 69.2342C168.374 67.8391 169.313 66.194 169.965 64.2988C170.618 62.3774 170.944 60.2585 170.944 57.9421V23.6317H179.24V57.9421C179.24 61.2587 178.719 64.3252 177.675 67.1416C176.631 69.958 175.131 72.3928 173.174 74.4459C171.218 76.499 168.843 78.1046 166.052 79.2628C163.26 80.4209 160.116 81 156.62 81C153.124 81 149.98 80.4209 147.189 79.2628C144.397 78.1046 142.023 76.499 140.066 74.4459C138.109 72.3928 136.609 69.958 135.565 67.1416C134.522 64.3252 134 61.2587 134 57.9421V23.6317H142.336V57.9027C142.336 60.219 142.649 62.3379 143.275 64.2594C143.927 66.1809 144.867 67.8391 146.093 69.2342C147.319 70.6029 148.819 71.6689 150.593 72.4323C152.367 73.1956 154.376 73.5773 156.62 73.5773Z" fill="#004C5C"/>
<path d="M219.613 52.8094C221.726 52.8094 223.578 52.533 225.17 51.9803C226.788 51.4275 228.131 50.651 229.201 49.6508C230.297 48.6242 231.118 47.4134 231.666 46.0184C232.214 44.597 232.488 43.0309 232.488 41.3199C232.488 37.8718 231.419 35.1607 229.279 33.1865C227.166 31.2124 223.944 30.2253 219.613 30.2253H210.925V52.8094H219.613ZM219.613 23.6317C223.213 23.6317 226.344 24.0529 229.005 24.8952C231.666 25.7375 233.871 26.9351 235.619 28.4881C237.367 30.0147 238.659 31.8704 239.493 34.0551C240.354 36.2398 240.785 38.6614 240.785 41.3199C240.785 43.9784 240.328 46.4264 239.415 48.6637C238.502 50.8747 237.158 52.7831 235.384 54.3887C233.61 55.9943 231.392 57.2446 228.731 58.1396C226.096 59.0082 223.057 59.4425 219.613 59.4425H210.925V80.3288H202.589V23.6317H219.613Z" fill="#004C5C"/>
<path d="M289.232 32.8707C288.971 33.3181 288.697 33.6472 288.41 33.8577C288.123 34.0683 287.758 34.1736 287.314 34.1736C286.845 34.1736 286.31 33.963 285.71 33.5419C285.11 33.0944 284.353 32.6074 283.44 32.081C282.553 31.5283 281.483 31.0413 280.231 30.6201C278.978 30.1727 277.478 29.9489 275.73 29.9489C274.087 29.9489 272.639 30.1727 271.386 30.6201C270.16 31.0413 269.129 31.6335 268.295 32.3969C267.46 33.1339 266.82 34.0157 266.377 35.0422C265.959 36.0424 265.751 37.1348 265.751 38.3193C265.751 39.8459 266.129 41.1094 266.886 42.1096C267.668 43.1098 268.686 43.9653 269.938 44.676C271.191 45.3867 272.612 46.0052 274.204 46.5317C275.795 47.0581 277.426 47.6108 279.096 48.1899C280.766 48.7427 282.396 49.3876 283.988 50.1246C285.579 50.8616 287.001 51.796 288.254 52.9278C289.506 54.0334 290.51 55.4021 291.267 57.034C292.05 58.6397 292.441 60.6138 292.441 62.9564C292.441 65.457 292.011 67.7996 291.15 69.9843C290.315 72.1691 289.088 74.0774 287.471 75.7093C285.853 77.3413 283.857 78.631 281.483 79.5786C279.135 80.4999 276.461 80.9605 273.46 80.9605C271.66 80.9605 269.912 80.7763 268.216 80.4078C266.52 80.0656 264.916 79.5786 263.403 78.9469C261.889 78.2889 260.467 77.5124 259.137 76.6174C257.832 75.6962 256.658 74.6696 255.615 73.5378L258.002 69.5106C258.237 69.1947 258.511 68.9315 258.824 68.7209C259.163 68.5103 259.541 68.405 259.959 68.405C260.507 68.405 261.133 68.6946 261.837 69.2737C262.568 69.8527 263.455 70.4976 264.498 71.2083C265.568 71.8927 266.833 72.5244 268.295 73.1035C269.782 73.6826 271.582 73.9721 273.695 73.9721C275.417 73.9721 276.956 73.7484 278.313 73.3009C279.67 72.8271 280.805 72.1691 281.718 71.3268C282.657 70.4581 283.375 69.4184 283.87 68.2076C284.366 66.9968 284.614 65.6544 284.614 64.1804C284.614 62.5221 284.236 61.1666 283.479 60.1137C282.722 59.0608 281.718 58.179 280.466 57.4683C279.213 56.7577 277.791 56.1523 276.2 55.6521C274.608 55.152 272.978 54.6388 271.308 54.1123C269.638 53.5596 268.008 52.9278 266.416 52.2172C264.825 51.5065 263.403 50.5852 262.15 49.4534C260.898 48.2952 259.894 46.8607 259.137 45.1498C258.38 43.4125 258.002 41.2805 258.002 38.7536C258.002 36.7268 258.393 34.7658 259.176 32.8707C259.959 30.9755 261.094 29.3041 262.581 27.8564C264.094 26.3823 265.946 25.211 268.138 24.3424C270.33 23.4475 272.834 23 275.652 23C278.809 23 281.705 23.5133 284.34 24.5398C287.001 25.54 289.31 26.9877 291.267 28.8829L289.232 32.8707Z" fill="#004C5C"/>
<path d="M351.218 30.6596H333.372V80.3288H325.076V30.6596H307.152V23.6317H351.218V30.6596Z" fill="#004C5C"/>
<path d="M385.404 50.9537C387.544 50.9537 389.422 50.6905 391.04 50.1641C392.684 49.6376 394.053 48.9006 395.149 47.953C396.245 46.9791 397.067 45.8341 397.615 44.518C398.163 43.1756 398.436 41.7016 398.436 40.096C398.436 36.8321 397.367 34.371 395.227 32.7127C393.114 31.0545 389.931 30.2253 385.678 30.2253H377.812V50.9537H385.404ZM411.625 80.3288H404.189C402.702 80.3288 401.619 79.7366 400.941 78.5521L387.048 58.8897C386.605 58.2317 386.122 57.771 385.6 57.5078C385.078 57.2183 384.296 57.0735 383.252 57.0735H377.812V80.3288H369.476V23.6317H385.678C389.305 23.6317 392.423 24.0134 395.032 24.7767C397.667 25.5137 399.832 26.5798 401.528 27.9748C403.25 29.3435 404.515 31.0018 405.324 32.9496C406.159 34.8974 406.577 37.0821 406.577 39.5037C406.577 41.4779 406.277 43.3336 405.676 45.0708C405.076 46.808 404.189 48.3742 403.015 49.7692C401.867 51.138 400.458 52.3224 398.789 53.3227C397.119 54.3229 395.227 55.0862 393.114 55.6127C394.158 56.2444 395.058 57.1262 395.814 58.258L411.625 80.3288Z" fill="#004C5C"/>
<path d="M463.899 73.4983L463.86 80.3288H429.029V23.6317H463.86V30.4622H437.404V48.4268H458.694V55.0204H437.404V73.4983H463.899Z" fill="#004C5C"/>
<path d="M514.238 59.2056L505.903 37.2138C505.302 35.7134 504.702 33.8182 504.102 31.5283C503.815 32.6601 503.515 33.713 503.202 34.6869C502.915 35.6608 502.628 36.5294 502.341 37.2927L494.045 59.2056H514.238ZM530.714 80.3288H524.296C523.566 80.3288 522.966 80.1445 522.496 79.776C522.026 79.4075 521.687 78.9337 521.478 78.3547L516.508 65.2069H491.736L486.765 78.3547C486.583 78.8548 486.244 79.3154 485.748 79.7366C485.252 80.1314 484.652 80.3288 483.948 80.3288H477.529L499.915 23.6317H508.329L530.714 80.3288Z" fill="#004C5C"/>
<path d="M607 23.6317V80.3288H599.721V39.9775C599.721 39.3721 599.734 38.7272 599.76 38.0429C599.812 37.3585 599.864 36.661 599.916 35.9503L581.21 70.5766C580.558 71.8664 579.553 72.5112 578.196 72.5112H577.022C575.666 72.5112 574.674 71.8664 574.048 70.5766L554.989 35.8319C555.146 37.3059 555.224 38.6878 555.224 39.9775V80.3288H547.906V23.6317H554.089C554.82 23.6317 555.381 23.7107 555.772 23.8686C556.189 24.0002 556.581 24.3951 556.946 25.0531L575.731 59.0082C576.096 59.6925 576.435 60.4164 576.748 61.1797C577.061 61.943 577.362 62.7064 577.649 63.4697C578.196 61.9167 578.836 60.4164 579.566 58.9687L597.999 25.0531C598.338 24.3951 598.703 24.0002 599.095 23.8686C599.512 23.7107 600.086 23.6317 600.817 23.6317H607Z" fill="#004C5C"/>
<path d="M680.116 27.0574H660.636V79.3697H656.598V27.0574H637V23.6303H680.116V27.0574Z" fill="#004C5C"/>
<path d="M730.61 76.0214L730.531 79.3697H697.292V23.6303H730.531V26.9786H701.33V49.5107H725.632V52.7802H701.33V76.0214H730.61Z" fill="#004C5C"/>
<path d="M789.401 69.9945C789.662 69.9945 789.884 70.0864 790.067 70.2702L791.635 71.9641C790.485 73.1983 789.231 74.3144 787.872 75.3124C786.54 76.284 785.063 77.1244 783.443 77.8335C781.849 78.5162 780.085 79.0415 778.151 79.4091C776.244 79.8031 774.14 80 771.841 80C768 80 764.472 79.3303 761.258 77.991C758.07 76.6254 755.326 74.7084 753.026 72.2398C750.727 69.745 748.937 66.7381 747.656 63.2191C746.402 59.7001 745.775 55.7872 745.775 51.4803C745.775 47.2523 746.428 43.3918 747.735 39.8991C749.041 36.4064 750.871 33.4126 753.222 30.9178C755.574 28.3967 758.396 26.4534 761.689 25.0878C764.981 23.6959 768.614 23 772.586 23C776.375 23 779.732 23.5909 782.659 24.7726C785.586 25.9544 788.251 27.622 790.655 29.7754L789.44 31.548C789.231 31.8632 788.904 32.0207 788.46 32.0207C788.147 32.0207 787.637 31.7319 786.932 31.1541C786.226 30.5764 785.246 29.9461 783.992 29.2633C782.738 28.5543 781.17 27.9109 779.288 27.3331C777.433 26.7554 775.199 26.4665 772.586 26.4665C769.241 26.4665 766.17 27.0442 763.374 28.1997C760.604 29.3552 758.213 31.0097 756.201 33.1631C754.215 35.3165 752.661 37.9426 751.537 41.0415C750.413 44.1403 749.852 47.6199 749.852 51.4803C749.852 55.4195 750.413 58.9385 751.537 62.0373C752.687 65.1361 754.255 67.7623 756.241 69.9157C758.227 72.0429 760.565 73.6842 763.257 74.8397C765.974 75.9689 768.901 76.5335 772.037 76.5335C774.023 76.5335 775.787 76.4022 777.328 76.1396C778.896 75.877 780.333 75.4831 781.64 74.9579C782.947 74.4326 784.162 73.7892 785.285 73.0276C786.409 72.2661 787.52 71.3732 788.617 70.349C788.748 70.244 788.878 70.1652 789.009 70.1126C789.14 70.0339 789.27 69.9945 789.401 69.9945Z" fill="#004C5C"/>
<path d="M853 23.6303V79.3697H848.963V52.6621H814.234V79.3697H810.197V23.6303H814.234V49.6289H848.963V23.6303H853Z" fill="#004C5C"/>
</svg>
